<svg width="20" height="20" viewBox="0 0 20 20" fill="none" xmlns="http://www.w3.org/2000/svg">
<path d="M4 3C3.44772 3 3 3.44772 3 4C3 4.55228 3.44772 5 4 5H16C16.5523 5 17 4.55228 17 4C17 3.44772 16.5523 3 16 3H4Z" fill="currentColor"/>
<path d="M6 7C5.44772 7 5 7.44772 5 8C5 8.55228 5.44772 9 6 9H14C14.5523 9 15 8.55228 15 8C15 7.44772 14.5523 7 14 7H6Z" fill="currentColor"/>
<path d="M5 16C5 15.4477 5.44772 15 6 15H14C14.5523 15 15 15.4477 15 16C15 16.5523 14.5523 17 14 17H6C5.44772 17 5 16.5523 5 16Z" fill="currentColor"/>
<path d="M4 11C3.44772 11 3 11.4477 3 12C3 12.5523 3.44772 13 4 13H16C16.5523 13 17 12.5523 17 12C17 11.4477 16.5523 11 16 11H4Z" fill="currentColor"/>
</svg>
