<svg width="20" height="20" viewBox="0 0 20 20" fill="none" xmlns="http://www.w3.org/2000/svg">
<path d="M4 3C3.44772 3 3 3.44772 3 4C3 4.55228 3.44772 5 4 5H16C16.5523 5 17 4.55228 17 4C17 3.44772 16.5523 3 16 3H4Z" fill="currentColor"/>
<path d="M4 7C3.44772 7 3 7.44772 3 8C3 8.55228 3.44772 9 4 9H16C16.5523 9 17 8.55228 17 8C17 7.44772 16.5523 7 16 7H4Z" fill="currentColor"/>
<path d="M3 12C3 11.4477 3.44772 11 4 11H16C16.5523 11 17 11.4477 17 12C17 12.5523 16.5523 13 16 13H4C3.44772 13 3 12.5523 3 12Z" fill="currentColor"/>
<path d="M4 15C3.44772 15 3 15.4477 3 16C3 16.5523 3.44772 17 4 17H16C16.5523 17 17 16.5523 17 16C17 15.4477 16.5523 15 16 15H4Z" fill="currentColor"/>
</svg>
