<svg width="20" height="20" viewBox="0 0 20 20" fill="none" xmlns="http://www.w3.org/2000/svg">
<path d="M4 3C3.44772 3 3 3.44772 3 4C3 4.55228 3.44772 5 4 5H16C16.5523 5 17 4.55228 17 4C17 3.44772 16.5523 3 16 3H4Z" fill="currentColor"/>
<path d="M4 7C3.44772 7 3 7.44772 3 8C3 8.55228 3.44772 9 4 9H11C11.5523 9 12 8.55228 12 8C12 7.44772 11.5523 7 11 7H4Z" fill="currentColor"/>
<path d="M3 16C3 15.4477 3.44772 15 4 15H11C11.5523 15 12 15.4477 12 16C12 16.5523 11.5523 17 11 17H4C3.44772 17 3 16.5523 3 16Z" fill="currentColor"/>
<path d="M4 11C3.44772 11 3 11.4477 3 12C3 12.5523 3.44772 13 4 13H16C16.5523 13 17 12.5523 17 12C17 11.4477 16.5523 11 16 11H4Z" fill="currentColor"/>
</svg>
