<svg width="20" height="20" viewBox="0 0 20 20" fill="none" xmlns="http://www.w3.org/2000/svg">
<path d="M4 3C3.44772 3 3 3.44772 3 4C3 4.55228 3.44772 5 4 5H16C16.5523 5 17 4.55228 17 4C17 3.44772 16.5523 3 16 3H4Z" fill="currentColor"/>
<path d="M9 7C8.44772 7 8 7.44772 8 8C8 8.55228 8.44772 9 9 9H16C16.5523 9 17 8.55228 17 8C17 7.44772 16.5523 7 16 7H9Z" fill="currentColor"/>
<path d="M8 16C8 15.4477 8.44772 15 9 15H16C16.5523 15 17 15.4477 17 16C17 16.5523 16.5523 17 16 17H9C8.44772 17 8 16.5523 8 16Z" fill="currentColor"/>
<path d="M4 11C3.44772 11 3 11.4477 3 12C3 12.5523 3.44772 13 4 13H16C16.5523 13 17 12.5523 17 12C17 11.4477 16.5523 11 16 11H4Z" fill="currentColor"/>
</svg>
