<svg width="20" height="20" viewBox="0 0 20 20" fill="none" xmlns="http://www.w3.org/2000/svg">
<path d="M10.3828 4.07588C10.2649 4.02699 10.1356 4 10 4C9.86441 4 9.73512 4.02699 9.61722 4.07588C9.49927 4.12468 9.38877 4.19702 9.29289 4.29289L5.29289 8.29289C4.90237 8.68342 4.90237 9.31658 5.29289 9.70711C5.68342 10.0976 6.31658 10.0976 6.70711 9.70711L9 7.41421V15C9 15.5523 9.44772 16 10 16C10.5523 16 11 15.5523 11 15L11 7.41421L13.2929 9.70711C13.6834 10.0976 14.3166 10.0976 14.7071 9.70711C15.0976 9.31658 15.0976 8.68342 14.7071 8.29289L10.7078 4.29356C10.7054 4.29116 10.703 4.28877 10.7005 4.2864C10.6062 4.19374 10.498 4.12357 10.3828 4.07588Z" fill="white"/>
</svg>
