<svg width="20" height="20" viewBox="0 0 20 20" fill="none" xmlns="http://www.w3.org/2000/svg">
<path d="M6 3C5.44772 3 5 3.44772 5 4V16C5 16.5523 5.44772 17 6 17H11.4C12.567 17 13.7149 16.6152 14.5858 15.8895C15.4619 15.1594 16 14.1258 16 13C16 11.8742 15.4619 10.8406 14.5858 10.1105C14.3671 9.92826 14.131 9.76756 13.8816 9.62904C14.5826 8.92162 15 7.99563 15 7C15 5.87899 14.4709 4.84626 13.6035 4.11439C12.7412 3.38681 11.6029 3 10.4444 3H6ZM10.4444 9H7V5H10.4444C11.172 5 11.8424 5.24533 12.3137 5.64297C12.7799 6.03632 13 6.52971 13 7C13 7.47029 12.7799 7.96368 12.3137 8.35703C11.8424 8.75467 11.172 9 10.4444 9ZM7 11H11.4C12.1425 11 12.826 11.2474 13.3054 11.6469C13.7795 12.042 14 12.5345 14 13C14 13.4655 13.7795 13.958 13.3054 14.3531C12.826 14.7526 12.1425 15 11.4 15H7V11Z" fill="currentColor"/>
</svg>
