<svg width="20" height="20" viewBox="0 0 20 20" fill="none" xmlns="http://www.w3.org/2000/svg">
<path d="M7 4C6.73478 4 6.48043 4.10536 6.29289 4.29289C6.10536 4.48043 6 4.73478 6 5V15.2338L9.4855 13.1425C9.80219 12.9525 10.1978 12.9525 10.5145 13.1425L14 15.2338V5C14 4.73478 13.8946 4.48043 13.7071 4.29289C13.5196 4.10536 13.2652 4 13 4H7ZM4.87868 2.87868C5.44129 2.31607 6.20435 2 7 2H13C13.7956 2 14.5587 2.31607 15.1213 2.87868C15.6839 3.44129 16 4.20435 16 5V17C16 17.3603 15.8062 17.6927 15.4927 17.8702C15.1792 18.0477 14.7944 18.0429 14.4855 17.8575L10 15.1662L5.5145 17.8575C5.20556 18.0429 4.82081 18.0477 4.5073 17.8702C4.19379 17.6927 4 17.3603 4 17V5C4 4.20435 4.31607 3.44129 4.87868 2.87868Z" fill="currentColor"/>
</svg>
