<svg width="20" height="20" viewBox="0 0 20 20" fill="none" xmlns="http://www.w3.org/2000/svg">
<path d="M7.70711 5.70711C8.09763 5.31658 8.09763 4.68342 7.70711 4.29289C7.31658 3.90237 6.68342 3.90237 6.29289 4.29289L1.29289 9.29289C0.902369 9.68342 0.902369 10.3166 1.29289 10.7071L6.29289 15.7071C6.68342 16.0976 7.31658 16.0976 7.70711 15.7071C8.09763 15.3166 8.09763 14.6834 7.70711 14.2929L3.41421 10L7.70711 5.70711Z" fill="currentColor"/>
<path d="M13.7071 4.29289C13.3166 3.90237 12.6834 3.90237 12.2929 4.29289C11.9024 4.68342 11.9024 5.31658 12.2929 5.70711L16.5858 10L12.2929 14.2929C11.9024 14.6834 11.9024 15.3166 12.2929 15.7071C12.6834 16.0976 13.3166 16.0976 13.7071 15.7071L18.7071 10.7071C19.0976 10.3166 19.0976 9.68342 18.7071 9.29289L13.7071 4.29289Z" fill="currentColor"/>
</svg>
