<svg width="20" height="20" viewBox="0 0 20 20" fill="none" xmlns="http://www.w3.org/2000/svg">
<path d="M4 6C4.55229 6 5 6.44772 5 7L5 13C5 13.5523 4.55228 14 4 14C3.44772 14 3 13.5523 3 13L3 7C3 6.44772 3.44772 6 4 6ZM7 5C7 4.44772 7.44772 4 8 4L12 4C12.2652 4 12.5196 4.10536 12.7071 4.29289C12.8946 4.48043 13 4.73478 13 5V15C13 15.5523 12.5523 16 12 16H8C7.73478 16 7.48043 15.8946 7.29289 15.7071C7.10536 15.5196 7 15.2652 7 15L7 5ZM16 6C16.5523 6 17 6.44772 17 7V13C17 13.5523 16.5523 14 16 14C15.4477 14 15 13.5523 15 13V7C15 6.44772 15.4477 6 16 6Z" fill="currentColor"/>
</svg>
