<svg width="20" height="20" viewBox="0 0 20 20" fill="none" xmlns="http://www.w3.org/2000/svg">
<path d="M12.2929 1.29289C12.6834 0.902369 13.3166 0.902369 13.7071 1.29289L16.7071 4.29289C17.0976 4.68342 17.0976 5.31658 16.7071 5.70711L13.7071 8.70711C13.3166 9.09763 12.6834 9.09763 12.2929 8.70711C11.9024 8.31658 11.9024 7.68342 12.2929 7.29289L13.5858 6H7C5.89543 6 5 6.89543 5 8C5 8.55228 4.55228 9 4 9C3.44772 9 3 8.55228 3 8C3 5.79086 4.79086 4 7 4H13.5858L12.2929 2.70711C11.9024 2.31658 11.9024 1.68342 12.2929 1.29289Z" fill="currentColor"/>
<path d="M13 14C14.1046 14 15 13.1046 15 12C15 11.4477 15.4477 11 16 11C16.5523 11 17 11.4477 17 12C17 14.2091 15.2091 16 13 16H6.41421L7.70711 17.2929C8.09763 17.6834 8.09763 18.3166 7.70711 18.7071C7.31658 19.0976 6.68342 19.0976 6.29289 18.7071L3.29289 15.7071C2.90237 15.3166 2.90237 14.6834 3.29289 14.2929L6.29289 11.2929C6.68342 10.9024 7.31658 10.9024 7.70711 11.2929C8.09763 11.6834 8.09763 12.3166 7.70711 12.7071L6.41421 14H13Z" fill="currentColor"/>
</svg>
