<svg width="20" height="20" viewBox="0 0 20 20" fill="none" xmlns="http://www.w3.org/2000/svg">
<path d="M5 2C3.34315 2 2 3.34315 2 5V10C2 11.6569 3.34315 13 5 13C5.55228 13 6 12.5523 6 12C6 11.4477 5.55228 11 5 11C4.44772 11 4 10.5523 4 10V5C4 4.44772 4.44772 4 5 4H10C10.5523 4 11 4.44772 11 5C11 5.55228 11.4477 6 12 6C12.5523 6 13 5.55228 13 5C13 3.34315 11.6569 2 10 2H5Z" fill="currentColor"/>
<path d="M10 7C8.34315 7 7 8.34315 7 10V15C7 16.6569 8.34315 18 10 18H15C16.6569 18 18 16.6569 18 15V10C18 8.34315 16.6569 7 15 7H10ZM9 10C9 9.44772 9.44772 9 10 9H15C15.5523 9 16 9.44772 16 10V15C16 15.5523 15.5523 16 15 16H10C9.44772 16 9 15.5523 9 15V10Z" fill="currentColor"/>
</svg>
