<svg width="20" height="20" viewBox="0 0 20 20" fill="none" xmlns="http://www.w3.org/2000/svg">
<path d="M11 14H15C16.6569 14 18 12.6569 18 11V6C18 4.34315 16.6569 3 15 3H5C3.34315 3 2 4.34315 2 6V11C2 12.6569 3.34315 14 5 14H9V16H7C6.44772 16 6 16.4477 6 17C6 17.5523 6.44772 18 7 18H13C13.5523 18 14 17.5523 14 17C14 16.4477 13.5523 16 13 16H11V14ZM5 5H15C15.5523 5 16 5.44772 16 6V11C16 11.5523 15.5523 12 15 12H5C4.44772 12 4 11.5523 4 11V6C4 5.44772 4.44772 5 5 5Z" fill="currentColor"/>
</svg>
