<svg width="20" height="20" viewBox="0 0 20 20" fill="none" xmlns="http://www.w3.org/2000/svg">
<path d="M17 3V9C17 9.55228 16.5523 10 16 10C15.4477 10 15 9.55228 15 9V6.41421L8.70711 12.7071C8.31658 13.0976 7.68342 13.0976 7.29289 12.7071C6.90237 12.3166 6.90237 11.6834 7.29289 11.2929L13.5858 5H11C10.4477 5 10 4.55228 10 4C10 3.44772 10.4477 3 11 3H17Z" fill="white"/>
<path d="M6 5C5.44772 5 5 5.44772 5 6V14C5 14.5523 5.44772 15 6 15H14C14.5523 15 15 14.5523 15 14V13C15 12.4477 15.4477 12 16 12C16.5523 12 17 12.4477 17 13V14C17 15.6569 15.6569 17 14 17H6C4.34315 17 3 15.6569 3 14V6C3 4.34315 4.34315 3 6 3H7C7.55228 3 8 3.44772 8 4C8 4.55228 7.55228 5 7 5H6Z" fill="white"/>
</svg>
