<svg width="20" height="20" viewBox="0 0 20 20" fill="none" xmlns="http://www.w3.org/2000/svg">
<path d="M11 7C11 7.55228 10.5523 8 10 8C9.44772 8 9 7.55228 9 7C9 6.44772 9.44772 6 10 6C10.5523 6 11 6.44772 11 7Z" fill="currentColor"/>
<path d="M10 9C10.5523 9 11 9.44772 11 10V13C11 13.5523 10.5523 14 10 14C9.44772 14 9 13.5523 9 13V10C9 9.44772 9.44772 9 10 9Z" fill="currentColor"/>
<path d="M5 2C3.34315 2 2 3.34315 2 5V15C2 16.6569 3.34315 18 5 18H15C16.6569 18 18 16.6569 18 15V5C18 3.34315 16.6569 2 15 2H5ZM4 5C4 4.44772 4.44772 4 5 4H15C15.5523 4 16 4.44772 16 5V15C16 15.5523 15.5523 16 15 16H5C4.44772 16 4 15.5523 4 15V5Z" fill="currentColor"/>
</svg>
