<svg width="20" height="20" viewBox="0 0 20 20" fill="none" xmlns="http://www.w3.org/2000/svg">
<path d="M11.5209 2.99999H14C14.5523 2.99999 15 3.44771 15 3.99999C15 4.55228 14.5523 4.99999 14 4.99999H12.2808L9.78077 15H11C11.5523 15 12 15.4477 12 16C12 16.5523 11.5523 17 11 17H8.52242C8.50801 17.0003 8.49356 17.0003 8.47907 17H6C5.44772 17 5 16.5523 5 16C5 15.4477 5.44772 15 6 15H7.71922L10.2192 4.99999H9C8.44772 4.99999 8 4.55228 8 3.99999C8 3.44771 8.44772 2.99999 9 2.99999H11.4776C11.492 2.99968 11.5064 2.99968 11.5209 2.99999Z" fill="currentColor"/>
</svg>
