<svg width="20" height="20" viewBox="0 0 20 20" fill="none" xmlns="http://www.w3.org/2000/svg">
<path d="M13.4645 2C12.3053 2 11.1428 2.44301 10.2574 3.32843L9.50736 4.07843C9.11683 4.46895 9.11683 5.10212 9.50736 5.49264C9.89788 5.88317 10.531 5.88317 10.9216 5.49264L11.6716 4.74264C12.1669 4.24735 12.814 4 13.4645 4C14.1149 4 14.7621 4.24735 15.2574 4.74264C15.7527 5.23793 16 5.88509 16 6.53553C16 7.18598 15.7527 7.83314 15.2574 8.32843L13.2442 10.3416C12.7983 10.7875 12.1895 10.9943 11.4918 11C10.93 11.0046 10.3989 10.8867 10.0369 10.6563C9.57096 10.3598 8.95287 10.4972 8.65635 10.9631C8.35984 11.429 8.49718 12.0471 8.96312 12.3437C9.76047 12.8511 10.7151 13.0064 11.5082 13C12.589 12.9911 13.7521 12.6621 14.6584 11.7558L16.6716 9.74264C17.557 8.85722 18 7.69473 18 6.53553C18 5.37634 17.557 4.21385 16.6716 3.32843C15.7861 2.443 14.6237 2 13.4645 2Z" fill="currentColor"/>
<path d="M6.53553 18.0002C7.69473 18.0002 8.85722 17.5572 9.74264 16.6717L10.4926 15.9217C10.8832 15.5312 10.8832 14.898 10.4926 14.5075C10.1021 14.117 9.46895 14.117 9.07843 14.5075L8.32843 15.2575C7.83314 15.7528 7.18598 16.0002 6.53553 16.0002C5.88509 16.0002 5.23793 15.7528 4.74264 15.2575C4.24735 14.7622 4 14.1151 4 13.4646C4 12.8142 4.24735 12.167 4.74264 11.6717L6.75584 9.65854C7.20167 9.21271 7.81052 9.00582 8.50818 9.00013C9.06999 8.99554 9.60107 9.11342 9.96311 9.34381C10.429 9.64033 11.0471 9.50299 11.3437 9.03705C11.6402 8.57111 11.5028 7.95302 11.0369 7.65651C10.2395 7.14909 9.28486 6.99372 8.49185 7.0002C7.411 7.00902 6.24787 7.33808 5.34162 8.24433L3.32843 10.2575C2.44301 11.1429 2 12.3054 2 13.4646C2 14.6238 2.44301 15.7863 3.32843 16.6717C4.21385 17.5572 5.37634 18.0002 6.53553 18.0002Z" fill="currentColor"/>
</svg>
