<svg width="20" height="20" viewBox="0 0 20 20" fill="none" xmlns="http://www.w3.org/2000/svg">
<path d="M11 3C11 2.44772 10.5523 2 10 2C9.44772 2 9 2.44772 9 3V5C9 5.55228 9.44772 6 10 6C10.5523 6 11 5.55228 11 5V3Z" fill="currentColor"/>
<path d="M11 15C11 14.4477 10.5523 14 10 14C9.44772 14 9 14.4477 9 15V17C9 17.5523 9.44772 18 10 18C10.5523 18 11 17.5523 11 17V15Z" fill="currentColor"/>
<path d="M2 10C2 9.44772 2.44772 9 3 9H5C5.55228 9 6 9.44772 6 10C6 10.5523 5.55228 11 5 11H3C2.44772 11 2 10.5523 2 10Z" fill="currentColor"/>
<path d="M15 9C14.4477 9 14 9.44772 14 10C14 10.5523 14.4477 11 15 11H17C17.5523 11 18 10.5523 18 10C18 9.44772 17.5523 9 17 9H15Z" fill="currentColor"/>
<path d="M15.6568 4.34315C16.0474 4.73367 16.0474 5.36684 15.6568 5.75736L14.2426 7.17157C13.8521 7.5621 13.2189 7.5621 12.8284 7.17157C12.4379 6.78105 12.4379 6.14788 12.8284 5.75736L14.2426 4.34315C14.6332 3.95262 15.2663 3.95262 15.6568 4.34315Z" fill="currentColor"/>
<path d="M7.17157 14.2426C7.56209 13.8521 7.56209 13.219 7.17157 12.8284C6.78104 12.4379 6.14788 12.4379 5.75736 12.8284L4.34314 14.2426C3.95262 14.6332 3.95262 15.2663 4.34314 15.6569C4.73367 16.0474 5.36683 16.0474 5.75736 15.6569L7.17157 14.2426Z" fill="currentColor"/>
<path d="M4.34314 4.34315C4.73366 3.95262 5.36683 3.95262 5.75735 4.34315L7.17157 5.75736C7.56209 6.14788 7.56209 6.78105 7.17157 7.17157C6.78104 7.5621 6.14788 7.5621 5.75735 7.17157L4.34314 5.75736C3.95262 5.36684 3.95262 4.73367 4.34314 4.34315Z" fill="currentColor"/>
<path d="M14.2426 12.8284C13.8521 12.4379 13.219 12.4379 12.8284 12.8284C12.4379 13.219 12.4379 13.8521 12.8284 14.2426L14.2426 15.6569C14.6332 16.0474 15.2663 16.0474 15.6569 15.6569C16.0474 15.2663 16.0474 14.6332 15.6569 14.2426L14.2426 12.8284Z" fill="currentColor"/>
</svg>
