<svg width="20" height="20" viewBox="0 0 20 20" fill="none" xmlns="http://www.w3.org/2000/svg">
<path d="M5.29289 4.29289C5.48043 4.10536 5.73478 4 6 4H8C8.55228 4 9 3.55228 9 3C9 2.44772 8.55228 2 8 2H6C5.20435 2 4.44129 2.31607 3.87868 2.87868C3.31607 3.44129 3 4.20435 3 5V15C3 15.7956 3.31607 16.5587 3.87868 17.1213C4.44129 17.6839 5.20435 18 6 18H8C8.55228 18 9 17.5523 9 17C9 16.4477 8.55228 16 8 16H6C5.73478 16 5.48043 15.8946 5.29289 15.7071C5.10536 15.5196 5 15.2652 5 15V5C5 4.73478 5.10536 4.48043 5.29289 4.29289Z" fill="currentColor"/>
<path d="M12.7071 5.29289C12.3166 4.90237 11.6834 4.90237 11.2929 5.29289C10.9024 5.68342 10.9024 6.31658 11.2929 6.70711L13.5858 9H8C7.44772 9 7 9.44772 7 10C7 10.5523 7.44772 11 8 11H13.5858L11.2929 13.2929C10.9024 13.6834 10.9024 14.3166 11.2929 14.7071C11.6834 15.0976 12.3166 15.0976 12.7071 14.7071L16.7071 10.7071C17.0976 10.3166 17.0976 9.68342 16.7071 9.29289L12.7071 5.29289Z" fill="currentColor"/>
</svg>
