<svg width="20" height="20" viewBox="0 0 20 20" fill="none" xmlns="http://www.w3.org/2000/svg">
<path d="M10 13C9.44772 13 9 13.4477 9 14C9 14.5523 9.44772 15 10 15H10.01C10.5623 15 11.01 14.5523 11.01 14C11.01 13.4477 10.5623 13 10.01 13H10Z" fill="currentColor"/>
<path d="M7 2C5.40925 2 4 3.21959 4 4.86667V15.1333C4 16.7804 5.40925 18 7 18H13C14.5908 18 16 16.7804 16 15.1333V4.86667C16 3.21959 14.5908 2 13 2H7ZM6 4.86667C6 4.45188 6.38161 4 7 4H13C13.6184 4 14 4.45188 14 4.86667V15.1333C14 15.5481 13.6184 16 13 16H7C6.38161 16 6 15.5481 6 15.1333V4.86667Z" fill="currentColor"/>
</svg>
