<svg width="20" height="20" viewBox="0 0 20 20" fill="none" xmlns="http://www.w3.org/2000/svg">
<path d="M10 2C8.34315 2 7 3.34315 7 5H4.5C3.94772 5 3.5 5.44772 3.5 6C3.5 6.55228 3.94772 7 4.5 7H5V14C5 16.2091 6.79086 18 9 18H11C13.2091 18 15 16.2091 15 14V7H15.5C16.0523 7 16.5 6.55228 16.5 6C16.5 5.44772 16.0523 5 15.5 5H13C13 3.34315 11.6569 2 10 2ZM11 5H9C9 4.44772 9.44772 4 10 4C10.5523 4 11 4.44772 11 5ZM7 7H13V14C13 15.1046 12.1046 16 11 16H9C7.89543 16 7 15.1046 7 14V7Z" fill="currentColor"/>
</svg>
