<svg width="20" height="20" viewBox="0 0 20 20" fill="none" xmlns="http://www.w3.org/2000/svg">
<path d="M11.5 7.40192C10.0651 6.57349 8.23034 7.06511 7.40191 8.49999C6.57349 9.93487 7.06511 11.7696 8.49999 12.5981C9.93487 13.4265 11.7696 12.9349 12.5981 11.5C13.4265 10.0651 12.9349 8.23034 11.5 7.40192ZM9.13396 9.49999C9.41011 9.0217 10.0217 8.85783 10.5 9.13397C10.9783 9.41011 11.1422 10.0217 10.866 10.5C10.5899 10.9783 9.97828 11.1422 9.49999 10.866C9.0217 10.5899 8.85782 9.97829 9.13396 9.49999Z" fill="currentColor"/>
<path d="M13.1492 2.58065C12.1927 2.02836 10.9695 2.35612 10.4172 3.3127L10.0191 4.00219L9.63909 3.33808C9.08751 2.37419 7.85624 2.04426 6.8966 2.60321L5.17602 3.60537C4.22671 4.1583 3.90111 5.37343 4.44675 6.32694L4.84327 7.01985L4.84072 7.02426L4.04238 7.02732C2.9438 7.03154 2.05427 7.92108 2.05007 9.01967L2.04246 11.0108C2.03822 12.1214 2.93958 13.0227 4.05013 13.0184L4.81527 13.0155L4.41719 13.705C3.86491 14.6616 4.19266 15.8848 5.14924 16.4371L6.85079 17.4194C7.80738 17.9717 9.03056 17.644 9.58284 16.6874L9.98092 15.9979L10.3609 16.662C10.9125 17.6259 12.1438 17.9558 13.1034 17.3969L14.824 16.3947C15.7733 15.8418 16.0989 14.6266 15.5533 13.6731L15.1568 12.9803L15.1593 12.9758L15.9576 12.9727C17.0562 12.9685 17.9457 12.079 17.9499 10.9804L17.9576 8.98925C17.9618 7.87871 17.0604 6.97737 15.9499 6.98163L15.1848 6.98456L15.5828 6.29509C16.1351 5.33851 15.8074 4.11533 14.8508 3.56304L13.1492 2.58065ZM12.1492 4.3127L13.8508 5.29509L13.1428 6.52142C12.9446 6.86462 12.9678 7.29245 13.202 7.6122C13.3777 7.85225 13.5249 8.11081 13.6418 8.38233C13.8003 8.75052 14.1633 8.9885 14.5641 8.98696L15.9576 8.98161L15.95 10.9728L14.5414 10.9782C14.1459 10.9797 13.7885 11.2141 13.6295 11.5762C13.57 11.7119 13.5022 11.846 13.426 11.978C13.3498 12.11 13.2675 12.2358 13.1798 12.3552C12.9457 12.674 12.9214 13.1007 13.1178 13.4439L13.8174 14.6665L12.0968 15.6686L11.4047 14.4592C11.2056 14.1113 10.818 13.9159 10.4199 13.9628C10.1263 13.9973 9.82883 13.9991 9.53305 13.9669C9.13908 13.9241 8.75696 14.1179 8.55882 14.4611L7.85079 15.6874L6.14924 14.705L6.85726 13.4787C7.05541 13.1355 7.0322 12.7076 6.79807 12.3879C6.6223 12.1478 6.47512 11.8893 6.35825 11.6177C6.19977 11.2496 5.83674 11.0116 5.43589 11.0131L4.04245 11.0185L4.05006 9.02731L6.10905 9.01941L6.37049 8.4239C6.43007 8.28819 6.49784 8.15405 6.57404 8.02206C6.65025 7.89007 6.73254 7.76431 6.82027 7.64486C7.05437 7.32615 7.07867 6.89942 6.88226 6.5562L6.18263 5.33359L7.90321 4.33143L8.5953 5.54086C8.79439 5.88877 9.182 6.08418 9.58011 6.03733C9.87369 6.00279 10.1712 6.00096 10.467 6.03316C10.861 6.07604 11.2431 5.88223 11.4412 5.53903L12.1492 4.3127Z" fill="currentColor"/>
</svg>
