<svg width="20" height="20" viewBox="0 0 20 20" fill="none" xmlns="http://www.w3.org/2000/svg">
<path d="M8.62402 9C8.47017 8.95557 8.13445 8.83596 7.82346 8.61827C7.399 8.32115 7 7.84988 7 7C7 6.33329 7.21737 5.91991 7.5496 5.63808C7.98159 5.27162 8.7641 5 10 5C11.0455 5 11.8815 5.3131 12.4586 5.6279C12.7547 5.78938 13.0518 5.97753 13.2974 6.2116C13.6883 6.59762 14.3181 6.59613 14.7071 6.20711C15.0976 5.81658 15.0976 5.18342 14.7071 4.79289C14.3044 4.44491 13.8865 4.12852 13.4164 3.8721C12.6185 3.4369 11.4545 3 10 3C8.53482 3 7.19991 3.31204 6.25581 4.11292C5.41683 4.82462 5 5.82758 5 7C5 7.8095 5.2048 8.46945 5.51092 9H4C3.44771 9 3 9.44772 3 10C3 10.5523 3.44771 11 4 11H8.4815C8.49458 11.0003 8.50762 11.0003 8.52063 11H11.3753C11.5288 11.0443 11.8651 11.1639 12.1765 11.3819C12.601 11.679 13 12.1503 13 13.0002C13 13.6669 12.7826 14.0803 12.4504 14.3621C12.0184 14.7286 11.2359 15.0002 10 15.0002C8.95449 15.0002 8.11848 14.6871 7.54135 14.3723C7.24531 14.2108 6.94815 14.0227 6.70259 13.7886C6.31171 13.4026 5.68191 13.4041 5.29289 13.7931C4.90237 14.1836 4.90237 14.8168 5.29289 15.2073C5.69556 15.5553 6.11355 15.8717 6.58365 16.1281C7.38152 16.5633 8.54551 17.0002 10 17.0002C11.4652 17.0002 12.8001 16.6881 13.7442 15.8873C14.5832 15.1756 15 14.1726 15 13.0002C15 12.1906 14.7952 11.5306 14.489 11H16C16.5523 11 17 10.5523 17 10C17 9.44772 16.5523 9 16 9H8.62402Z" fill="currentColor"/>
</svg>
