<svg width="20" height="20" viewBox="0 0 20 20" fill="none" xmlns="http://www.w3.org/2000/svg">
<path d="M12.5963 3.48447C11.4408 1.48861 8.55921 1.48862 7.40371 3.48447L1.60706 13.4969C0.449167 15.4969 1.89234 18 4.20334 18H15.7967C18.1077 18 19.5508 15.4969 18.3929 13.4969L12.5963 3.48447ZM10 5.99999C10.5523 5.99999 11 6.4477 11 6.99999V11C11 11.5523 10.5523 12 10 12C9.44771 12 9 11.5523 9 11V6.99999C9 6.4477 9.44771 5.99999 10 5.99999ZM10 16C9.44772 16 9 15.5523 9 15C9 14.4477 9.44772 14 10 14C10.5523 14 11 14.4477 11 15C11 15.5523 10.5523 16 10 16Z" fill="currentColor"/>
</svg>
