<svg width="20" height="20" viewBox="0 0 20 20" fill="none" xmlns="http://www.w3.org/2000/svg">
<path d="M10 7.99999C9.44771 7.99999 9 8.44771 9 8.99999V11C9 11.5523 9.44771 12 10 12C10.5523 12 11 11.5523 11 11V8.99999C11 8.44771 10.5523 7.99999 10 7.99999Z" fill="currentColor"/>
<path d="M10 15C9.44771 15 9 14.5523 9 14C9 13.4477 9.44771 13 10 13C10.5523 13 11 13.4477 11 14C11 14.5523 10.5523 15 10 15Z" fill="currentColor"/>
<path d="M7.40372 3.48447C8.55922 1.48861 11.4408 1.48862 12.5963 3.48447L18.3929 13.4969C19.5508 15.4969 18.1077 18 15.7967 18H4.20334C1.89234 18 0.449167 15.4969 1.60706 13.4969L7.40372 3.48447ZM10.8654 4.48655C10.4803 3.82125 9.51974 3.82126 9.13457 4.48654L3.33791 14.499C2.95195 15.1656 3.43301 16 4.20334 16H15.7967C16.567 16 17.048 15.1656 16.6621 14.499L10.8654 4.48655Z" fill="currentColor"/>
</svg>
